<svg width="34" height="24" viewBox="0 0 34 24" fill="none" xmlns="http://www.w3.org/2000/svg">
<path d="M24 16H26C26.6 16 27 15.6 27 15V12C27 11.1 26.3 10.3 25.5 10.1C23.7 9.6 21 9 21 9C21 9 19.7 7.6 18.8 6.7C18.3 6.3 17.7 6 17 6H10C9.4 6 8.9 6.4 8.6 6.9L7.2 9.8C7.06758 10.1862 7 10.5917 7 11V15C7 15.6 7.4 16 8 16H10M24 16C24 17.1046 23.1046 18 22 18C20.8954 18 20 17.1046 20 16M24 16C24 14.8954 23.1046 14 22 14C20.8954 14 20 14.8954 20 16M10 16C10 17.1046 10.8954 18 12 18C13.1046 18 14 17.1046 14 16M10 16C10 14.8954 10.8954 14 12 14C13.1046 14 14 14.8954 14 16M14 16H20" stroke="#939393" stroke-width="2" stroke-linecap="round" stroke-linejoin="round"/>
</svg>
