<svg width="32" height="32" viewBox="0 0 32 32" fill="none" xmlns="http://www.w3.org/2000/svg">
<path d="M0 10C0 4.47715 4.47715 0 10 0H21.9644C27.4873 0 31.9644 4.47715 31.9644 10V21.9644C31.9644 27.4873 27.4873 31.9644 21.9644 31.9644H10C4.47715 31.9644 0 27.4873 0 21.9644V10Z" fill="#4197FE"/>
<g clip-path="url(#clip0_6413_7387)">
<path d="M15.9824 9.323V22.6415" stroke="white" stroke-width="1.33185" stroke-linecap="round" stroke-linejoin="round"/>
<path d="M19.3115 11.3208H14.3171C13.6989 11.3208 13.1061 11.5664 12.669 12.0035C12.2319 12.4406 11.9863 13.0334 11.9863 13.6515C11.9863 14.2697 12.2319 14.8625 12.669 15.2996C13.1061 15.7367 13.6989 15.9823 14.3171 15.9823H17.6467C18.2648 15.9823 18.8577 16.2278 19.2948 16.6649C19.7319 17.102 19.9774 17.6949 19.9774 18.313C19.9774 18.9312 19.7319 19.524 19.2948 19.9611C18.8577 20.3982 18.2648 20.6438 17.6467 20.6438H11.9863" stroke="white" stroke-width="1.33185" stroke-linecap="round" stroke-linejoin="round"/>
</g>
<defs>
<clipPath id="clip0_6413_7387">
<rect width="15.9822" height="15.9822" fill="white" transform="translate(7.99121 7.99121)"/>
</clipPath>
</defs>
</svg>
