<svg width="24" height="24" viewBox="0 0 24 24" fill="none" xmlns="http://www.w3.org/2000/svg">
<rect width="24" height="24" rx="12" fill="white"/>
<path d="M11.9997 12.6665C12.3679 12.6665 12.6663 12.368 12.6663 11.9998C12.6663 11.6316 12.3679 11.3332 11.9997 11.3332C11.6315 11.3332 11.333 11.6316 11.333 11.9998C11.333 12.368 11.6315 12.6665 11.9997 12.6665Z" stroke="black" stroke-width="2" stroke-linecap="round" stroke-linejoin="round"/>
<path d="M11.9997 7.99984C12.3679 7.99984 12.6663 7.70136 12.6663 7.33317C12.6663 6.96498 12.3679 6.6665 11.9997 6.6665C11.6315 6.6665 11.333 6.96498 11.333 7.33317C11.333 7.70136 11.6315 7.99984 11.9997 7.99984Z" stroke="black" stroke-width="2" stroke-linecap="round" stroke-linejoin="round"/>
<path d="M11.9997 17.3332C12.3679 17.3332 12.6663 17.0347 12.6663 16.6665C12.6663 16.2983 12.3679 15.9998 11.9997 15.9998C11.6315 15.9998 11.333 16.2983 11.333 16.6665C11.333 17.0347 11.6315 17.3332 11.9997 17.3332Z" stroke="black" stroke-width="2" stroke-linecap="round" stroke-linejoin="round"/>
</svg>
